HIERARCHY
ROOT root
{
	OFFSET 0.000000 0.000000 0.000000
	CHANNELS 6 Xposition Yposition Zposition Zrotation Yrotation Xrotation
	JOINT lhip
	{
		OFFSET 0.058581 -0.082280 -0.017664
		CHANNELS 3 Zrotation Yrotation Xrotation
		JOINT lknee
		{
			OFFSET 0.043451 -0.386469 0.008037
			CHANNELS 3 Zrotation Yrotation Xrotation
			JOINT lankle
			{
				OFFSET -0.014790 -0.426874 -0.037428
				CHANNELS 3 Zrotation Yrotation Xrotation
				JOINT ltoe
				{
					OFFSET 0.041054 -0.060286 0.122042
					CHANNELS 3 Zrotation Yrotation Xrotation
					End Site
					{
						OFFSET 0.000000 0.000000 0.000000
					}
				}
			}
		}
	}
	JOINT rhip
	{
		OFFSET -0.060310 -0.090513 -0.013543
		CHANNELS 3 Zrotation Yrotation Xrotation
		JOINT rknee
		{
			OFFSET -0.043257 -0.383688 -0.004843
			CHANNELS 3 Zrotation Yrotation Xrotation
			JOINT rankle
			{
				OFFSET 0.019056 -0.420046 -0.034562
				CHANNELS 3 Zrotation Yrotation Xrotation
				JOINT rtoe
				{
					OFFSET -0.034840 -0.062106 0.130323
					CHANNELS 3 Zrotation Yrotation Xrotation
					End Site
					{
						OFFSET 0.000000 0.000000 0.000000
					}
				}
			}
		}
	}
	JOINT lowerback
	{
		OFFSET 0.004439 0.124404 -0.038385
		CHANNELS 3 Zrotation Yrotation Xrotation
		JOINT upperback
		{
			OFFSET 0.004488 0.137956 0.026820
			CHANNELS 3 Zrotation Yrotation Xrotation
			JOINT chest
			{
				OFFSET -0.002265 0.056032 0.002855
				CHANNELS 3 Zrotation Yrotation Xrotation
				JOINT lowerneck
				{
					OFFSET -0.013390 0.211636 -0.033468
					CHANNELS 3 Zrotation Yrotation Xrotation
					JOINT upperneck
					{
						OFFSET 0.010113 0.088937 0.050410
						CHANNELS 3 Zrotation Yrotation Xrotation
						End Site
						{
							OFFSET 0.000000 0.000000 0.000000
						}
					}
				}
				JOINT lclavicle
				{
					OFFSET 0.071702 0.114000 -0.018898
					CHANNELS 3 Zrotation Yrotation Xrotation
					JOINT lshoulder
					{
						OFFSET 0.122921 0.045205 -0.019046
						CHANNELS 3 Zrotation Yrotation Xrotation
						JOINT lelbow
						{
							OFFSET 0.255332 -0.015649 -0.022946
							CHANNELS 3 Zrotation Yrotation Xrotation
							JOINT lwrist
							{
								OFFSET 0.265709 0.012698 -0.007375
								CHANNELS 3 Zrotation Yrotation Xrotation
								End Site
								{
									OFFSET 0.000000 0.000000 0.000000
								}
							}
						}
					}
				}
				JOINT rclavicle
				{
					OFFSET -0.082954 0.112472 -0.023707
					CHANNELS 3 Zrotation Yrotation Xrotation
					JOINT rshoulder
					{
						OFFSET -0.113228 0.046853 -0.008472
						CHANNELS 3 Zrotation Yrotation Xrotation
						JOINT relbow
						{
							OFFSET -0.260127 -0.014369 -0.031269
							CHANNELS 3 Zrotation Yrotation Xrotation
							JOINT rwrist
							{
								OFFSET -0.269108 0.006794 -0.006027
								CHANNELS 3 Zrotation Yrotation Xrotation
								End Site
								{
									OFFSET 0.000000 0.000000 0.000000
								}
							}
						}
					}
				}
			}
		}
	}
}
MOTION
Frames: 5
Frame Time: 0.033333
1.090766 0.729372 0.971932 -95.285300 1.637932 98.391165 5.419081 -1.908131 -19.030672 -8.288691 0.396919 38.316625 4.577435 9.422916 -14.160354 0.000000 -0.000000 0.000000 1.564338 -2.359437 -18.015137 2.584598 -0.750123 35.475789 0.220817 -9.659761 -11.840558 0.000000 -0.000000 0.000000 -1.708396 6.120650 15.404232 -1.461061 -0.373881 -1.778523 1.452018 1.495895 -0.310837 1.368430 6.124199 -22.902512 -1.450992 -0.800242 -11.571426 -4.731932 -10.402960 -4.172203 -43.166646 -1.288056 8.234862 3.801948 -52.970484 17.940969 -16.242083 -2.371940 -10.649053 -0.662026 26.368552 -6.666255 22.423178 40.070327 -8.472377 -35.196659 48.689020 -21.104071 8.722123 -1.726778 -1.699230 
1.047529 0.731165 1.042291 -91.315470 0.965195 96.192812 4.845202 -1.674995 -8.533492 -5.457866 -0.628022 23.003463 -3.596683 3.949666 11.106990 0.000000 -0.000000 0.000000 0.701051 -6.435998 -6.680048 -0.177445 -3.343964 20.470936 5.103895 -4.687921 15.952965 0.000000 -0.000000 0.000000 -2.415289 6.214699 7.552161 -0.967828 -1.228353 3.654147 2.908981 1.418846 -2.854238 -1.258184 2.567041 -12.237088 0.566141 2.504047 -10.151320 -2.245352 -9.698953 -1.628632 -51.705047 0.011842 7.620653 0.449949 -48.982567 22.085353 -25.465216 -1.110860 -9.640642 -2.514245 24.443499 -3.601478 24.323182 38.675381 -9.228517 -29.257361 48.430754 -15.413749 11.522188 -3.995961 3.697722 
1.009520 0.728706 1.110522 -86.069080 0.139574 94.249246 3.181310 -2.094985 -0.224738 -0.546368 -1.769889 6.611524 -9.148861 4.625761 33.846160 0.000000 -0.000000 0.000000 0.447503 -8.846369 0.161782 -3.549868 -7.130571 9.071914 9.928468 -6.097126 39.867793 0.000000 -0.000000 0.000000 -2.914377 5.196574 4.675354 -1.167984 -1.869317 4.434498 4.015506 0.992722 -5.226397 -3.693384 0.314071 -0.874888 0.938245 9.588782 -12.709762 -5.620623 -7.020939 1.929939 -55.088468 -1.533463 6.832847 -3.570964 -41.018844 24.249473 -25.950804 1.384156 -8.165953 -0.532142 20.687376 0.316480 26.593815 37.131302 -6.843027 -21.283460 46.809853 -8.101905 7.370882 -2.315507 8.339719 
0.986625 0.723355 1.168909 -80.168775 -0.561689 95.066403 1.716581 0.289487 -1.884338 1.185649 5.221637 1.694285 -4.338378 8.327055 31.828770 0.000000 -0.000000 0.000000 0.757436 -8.493417 -2.745003 -2.795464 -6.728699 8.691561 9.827801 -7.895503 40.341069 0.000000 -0.000000 0.000000 -2.315337 3.954455 2.492921 -2.027447 -1.674353 4.906015 3.612786 0.639425 -6.790813 -5.093287 1.713339 0.820928 -0.518352 17.077567 -14.528444 -13.431971 -7.203237 3.814634 -52.641824 -2.349917 5.520695 -3.238351 -31.872929 20.773047 -24.316691 4.030351 -3.511159 3.669325 16.980709 3.243568 26.730914 31.953230 -4.495686 -19.469756 44.283096 -8.064369 7.132115 -1.649922 9.034876 
0.972367 0.718710 1.214207 -74.017019 -1.042305 95.808856 0.050984 -0.567832 -5.436163 1.274524 10.285154 0.483333 -2.831726 10.642372 34.078608 0.000000 -0.000000 0.000000 0.945289 -5.354923 -7.310389 -2.297849 -6.271760 7.650260 11.829799 -7.646133 39.665427 0.000000 -0.000000 0.000000 -0.546660 3.223793 3.726734 -3.053881 -1.369362 4.083957 2.065319 0.932336 -7.326986 -5.524151 7.166877 -3.372954 -1.515301 21.540844 -12.818141 -20.476626 -10.025653 3.853493 -50.703044 -4.012554 5.966151 1.954782 -19.397993 12.794400 -22.553327 5.646338 5.724777 8.071259 13.494473 4.921146 27.170749 24.092343 -2.631331 -19.774297 38.727710 -9.076077 2.533309 -2.900335 8.944351 
